<svg xmlns="http://www.w3.org/2000/svg" version="1.1" xmlns:xlink="http://www.w3.org/1999/xlink" xmlns:svgjs="http://svgjs.dev/svgjs" width="1440" height="560" preserveAspectRatio="none" viewBox="0 0 1440 560"><g mask="url(&quot;#SvgjsMask1002&quot;)" fill="none"><rect width="1440" height="560" x="0" y="0" fill="#0e2a47"></rect><path d="M0,332.246C64.676,335.997,132.375,325.693,185.276,288.296C237.237,251.563,252.789,184.961,285.531,130.397C323.176,67.663,400.526,16.3,392.104,-56.376C383.71,-128.808,297.253,-161.328,245.741,-212.936C198.468,-260.297,162.864,-319.471,101.918,-347.102C35.761,-377.095,-39.271,-391.28,-109.861,-374.154C-182.03,-356.645,-254.971,-316.983,-290.66,-251.858C-324.978,-189.234,-277.978,-112.01,-291.901,-41.969C-307.068,34.329,-402.851,98.604,-374.745,171.14C-347.143,242.375,-242.145,237.403,-171.96,267.576C-114.536,292.263,-62.401,328.627,0,332.246" fill="#0b2239"></path><path d="M1440 941.6C1510.188 944.841 1557.568 872.717 1618.62 837.938 1684.069 800.655 1775.372 795.723 1811.806 729.798 1848.333 663.705 1810.916 582.958 1800.902 508.11 1790.778 432.443 1804.905 344.754 1752.8229999999999 288.938 1700.88 233.27100000000002 1613.527 235.745 1537.974 226.33300000000003 1472.872 218.223 1410.7 230.83100000000002 1345.51 238.195 1265.156 247.27100000000002 1169.3899999999999 219.04399999999998 1110.634 274.603 1052.275 329.78700000000003 1072.83 426.074 1062.576 505.735 1052.491 584.085 1007.457 671.745 1051.032 737.636 1095.359 804.664 1200.508 784.5989999999999 1271.676 821.918 1333.907 854.55 1369.807 938.3589999999999 1440 941.6" fill="#113255"></path></g><defs><mask id="SvgjsMask1002"><rect width="1440" height="560" fill="#ffffff"></rect></mask></defs></svg>