<svg id="visual" viewBox="0 0 900 600" width="900" height="600" xmlns="http://www.w3.org/2000/svg" xmlns:xlink="http://www.w3.org/1999/xlink" version="1.1"><path d="M0 79L82 79L164 37L245 73L327 67L409 49L491 43L573 37L655 43L736 55L818 61L900 61L900 0L818 0L736 0L655 0L573 0L491 0L409 0L327 0L245 0L164 0L82 0L0 0Z" fill="#00cc8e"></path><path d="M0 283L82 295L164 115L245 181L327 235L409 169L491 151L573 139L655 223L736 157L818 217L900 175L900 59L818 59L736 53L655 41L573 35L491 41L409 47L327 65L245 71L164 35L82 77L0 77Z" fill="#00b98a"></path><path d="M0 331L82 367L164 211L245 259L327 361L409 229L491 229L573 205L655 283L736 211L818 301L900 253L900 173L818 215L736 155L655 221L573 137L491 149L409 167L327 233L245 179L164 113L82 293L0 281Z" fill="#00a784"></path><path d="M0 439L82 445L164 373L245 313L327 451L409 385L491 349L573 385L655 373L736 301L818 385L900 343L900 251L818 299L736 209L655 281L573 203L491 227L409 227L327 359L245 257L164 209L82 365L0 329Z" fill="#00957c"></path><path d="M0 601L82 601L164 601L245 601L327 601L409 601L491 601L573 601L655 601L736 601L818 601L900 601L900 341L818 383L736 299L655 371L573 383L491 347L409 383L327 449L245 311L164 371L82 443L0 437Z" fill="#038373"></path></svg>